# xmcd
#
# Track frame offsets:
# 150
# 27990
# 53139
# 73371
# 88419
# 120719
# 136643
#
# Disc length: 2298 seconds
#
#
# Revision: 0
# Processed by: cddbd v1.5.1PL2 Copyright (c) Steve Scherf et al.
# Submitted via: FreeRIP 2.945 
#
DISCID=6308f807
DTITLE=Exuma - Exuma,Vol.1
DYEAR=2003
DGENRE=Acoustic
TTITLE0=Exuma,the Obeah Man
TTITLE1=Dambala
TTITLE2=Mama Loi,Papa Loi
TTITLE3=Junkanoo
TTITLE4=Seance in the Sixth Fret
TTITLE5=You Don´t Know What´s Going On
TTITLE6=The Vision
EXTD=
EXTT0=
EXTT1=
EXTT2=
EXTT3=
EXTT4=
EXTT5=
EXTT6=
PLAYORDER=
